<svg xmlns="http://www.w3.org/2000/svg" viewBox="0 0 342.9 36.8"><style>.st0,.st1{fill:#fff}.st1{stroke:#fff;stroke-width:.6}</style><g id="Ebene_2_1_"><g id="Ebene_1-2"><path id="Fill-3_1_" class="st0" d="M27.1 2.6c-2.4-.1-4.5 1.7-4.7 4.1V7c0 1 .4 2 1.1 2.7.2.2 2.3 2 2.3 2v2.2c0 .5.4.2.9.2s.9.3.9-.2v-2.5c0-.3-.2-.5-.4-.7l-2.5-2.2c-.4-.5-.7-1.2-.6-1.9.1-1.6 1.5-2.8 3-2.7 1.5.1 2.6 1.2 2.7 2.7.1.5.5.9 1 .8.4 0 .8-.4.8-.8-.1-2.3-2.1-4.1-4.5-4"/><path class="st0" d="M27.5 14.9H26.6c-.2 0-.6.1-.9-.2-.2-.2-.3-.4-.3-.8V12c-.6-.5-2-1.7-2.1-1.8-.8-.9-1.3-2-1.3-3.2v-.3c.1-1.3.7-2.6 1.7-3.5 1-.9 2.3-1.3 3.7-1.3 2.6-.1 4.9 2 5.1 4.6v.2c-.1.7-.7 1.3-1.4 1.4-.8.1-1.6-.5-1.7-1.4-.1-1.2-1-2.1-2.1-2.1-1.2-.1-2.3.9-2.4 2.1 0 .5.1 1 .5 1.3l2.5 2.2c.3.3.5.6.6 1v2.6c0 .3-.1.6-.3.8-.4.2-.6.3-.7.3zm-.6-11.7c-.9 0-1.8.3-2.5.9-.7.7-1.2 1.6-1.3 2.6v.2c0 .8.3 1.7.9 2.2.1.1 1.5 1.3 2.3 2l.2.2v2.1h.5v-2.1c0-.1-.1-.2-.2-.3l-2.4-2c-.7-.6-1-1.5-.9-2.4.1-1.9 1.8-3.4 3.7-3.3v-.7.6h-.3zm.3.1c1.8.1 3.2 1.5 3.3 3.3 0 .1.1.2.3.2.1 0 .2-.1.2-.2-.2-1.9-1.9-3.4-3.8-3.3z"/><path class="st0" d="M48.1 36.8h-42c-3.4-.2-6-2.9-6.1-6.2 0-1.7.7-3.3 1.8-4.5 1.2-1.2 2.8-1.8 4.4-1.8h.7c1.4-3 4.5-5 7.9-5 .5 0 .9 0 1.4.1 1.2-2.3 3.2-4.1 5.6-5.2 1.6-.7 3.2-1 4.9-1 4.4 0 8.5 2.5 10.5 6.3.7-.2 1.3-.2 2-.2 3.4 0 6.5 1.9 7.9 4.9h.4c1.6 0 3.2.6 4.4 1.8s1.9 2.7 1.9 4.4v.1c0 1.6-.6 3.1-1.7 4.3-.8 1.1-2.3 1.8-4 2zM6.3 27.5c-.9 0-1.6.3-2.2.9-.6.6-.9 1.3-.9 2.1 0 1.6 1.3 2.9 2.9 3h41.8c.8-.1 1.5-.5 2-1 .5-.6.8-1.3.8-2h1.6-1.6 1.6-1.6c0-.8-.3-1.5-.9-2.1-.6-.6-1.3-.8-2.1-.8-.3 0-.6 0-.9.2l-1.7.6-.5-1.7c-.7-2.3-2.9-4-5.3-4h-.1c-.7 0-1.5.2-2.1.5l-1.6.8-.5-1.9c-1.2-3.4-4.5-5.7-8.1-5.7-1.2 0-2.5.3-3.6.8-2 .9-3.6 2.6-4.5 4.7l-.6 1.5-1.5-.5c-.6-.2-1.2-.3-1.8-.3-2.5 0-4.7 1.7-5.3 4l-.5 1.7-1.6-.5c-.4-.2-.8-.3-1.2-.3zM76.4 34.2V2.5H95v3.1H80.1v10.5h12.6v3.1H80.1v14.9h-3.7z"/><path class="st0" d="M81.2 35.3h-6V1.4h20.9v5.4H81.2V15h12.5v5.5H81.2v14.8zM77.5 33H79V18.2h12.5v-.9H79V4.5h14.9v-.8H77.5V33zM116.1 34.2h-2.5l-.5-2.4c-2 2-4.8 3.1-7.6 3-2 .1-4-.6-5.5-1.9-1.4-1.3-2.1-3.2-2-5.1 0-5.2 3.8-7.8 11.4-7.8h3.4v-.3c0-4-1.9-6-5.8-6-2.3 0-4.5.8-6.3 2.2L99.5 14c2.3-2.1 5.3-3.2 8.4-3.1 2.3-.1 4.5.8 6 2.4 1.4 1.6 2.1 4 2.1 7.1l.1 13.8zm-3.3-11.8h-3c-5.5 0-8.2 1.7-8.2 5-.1 1.3.4 2.5 1.3 3.4 1 .9 2.2 1.3 3.5 1.3 1.3 0 2.7-.3 3.8-1 1.1-.5 2-1.4 2.6-2.5v-6.2z"/><path class="st0" d="M105 35.9c-2.1 0-4.2-.8-5.8-2.2-1.6-1.6-2.5-3.8-2.4-6 0-4 2.2-8.9 12.5-8.9h2.3c-.2-2.8-1.7-4-4.6-4-2 0-4 .7-5.7 2l-1 .8-2.3-3.8.7-.7c2.5-2.3 5.8-3.5 9.2-3.5 2.5-.1 5.1.9 6.8 2.8 1.6 1.9 2.4 4.5 2.4 7.8l.1 15h-4.6l-.3-1.5c-2 1.4-4.4 2.2-6.9 2.1-.1.1-.3.1-.4.1zm4.4-14.8c-10.2 0-10.2 5-10.2 6.7-.1 1.6.5 3.2 1.7 4.3 1.3 1.1 2.9 1.7 4.6 1.6 2.2.1 4.3-.6 5.9-1.9-.2.1-.4.2-.6.4-1.3.7-2.8 1.1-4.4 1.1-1.6.1-3.1-.5-4.3-1.6-1.2-1.2-1.7-2.7-1.7-4.3 0-2.7 1.6-6.1 9.3-6.1h4.1v7.6l-.1.2c-.1.3-.3.5-.5.8l.5-.5.7 3.6h.4V20.4c0-2.8-.6-4.9-1.8-6.3-1.3-1.4-3.1-2.2-5.1-2.1-2.4-.1-4.6.6-6.5 1.9 1.7-.9 3.6-1.4 5.5-1.5 4.5 0 7 2.5 7 7.1V21h-4.5zm.4 2.4c-7.1 0-7.1 2.9-7.1 3.8-.1 1 .3 1.9.9 2.6.7.6 1.7 1 2.7.9 1.2 0 2.3-.3 3.3-.9.8-.4 1.5-1 2-1.8v-4.7h-1.8zM135.6 14.9c-1.7-.9-3.6-1.3-5.4-1.3-1.1-.1-2.2.2-3.1.9-.7.6-1.1 1.5-1.1 2.4-.1.9.3 1.8 1 2.5 1.2.8 2.5 1.4 3.9 1.7 2.1.5 4 1.5 5.7 2.8 1.1 1.2 1.7 2.7 1.6 4.4.1 1.8-.8 3.6-2.2 4.8-1.6 1.3-3.7 1.9-5.7 1.8-2.9.1-5.7-.8-8-2.5l.5-.8c.2-.3.4-.7.6-1 1.9 1.1 4.1 1.6 6.2 1.6 3.5 0 5.2-1.3 5.2-3.9.1-1-.4-1.9-1.1-2.5-1.3-.8-2.7-1.4-4.2-1.7-4.7-1.3-7.1-3.7-7.1-7 0-1.7.7-3.3 2.1-4.4 1.5-1.2 3.4-1.8 5.3-1.7 2.5 0 4.9.7 6.9 2.2l-1.1 1.7z"/><path class="st0" d="M130.6 35.9h-.4c-3 .1-6.1-.9-8.6-2.7l-.8-.6 1-1.8c.2-.3.4-.7.6-1.1l.6-.9.9.5c1.7 1 3.7 1.5 5.7 1.5 3.6 0 4.1-1.4 4.1-2.8 0-.6-.2-1.2-.6-1.6-1.1-.7-2.4-1.2-3.7-1.5-5.4-1.5-8-4.2-8-8.1 0-2 .9-4 2.5-5.3 1.7-1.3 3.9-2 6.1-1.9 2.7 0 5.3.8 7.5 2.4l.9.6-2.2 3.8-1-.5c-1.5-.8-3.2-1.2-4.9-1.2-.9-.1-1.8.2-2.5.7-.4.3-.6.8-.6 1.4v.2c0 .6.2 1.1.6 1.5 1 .7 2.2 1.2 3.4 1.5 2.2.5 4.4 1.6 6.2 3l.1.1c1.3 1.4 2 3.3 1.9 5.2.1 2.2-.9 4.3-2.6 5.7-1.8 1.2-4 1.9-6.2 1.9zm-.4-2.3c1.9.1 3.6-.5 5.1-1.6 1.1-.9 1.8-2.3 1.8-3.8V28c.1-1.3-.4-2.5-1.2-3.4-1.5-1.2-3.3-2.1-5.2-2.5-1.5-.4-3-1-4.3-1.9l-.1-.1c-.9-.9-1.4-2.1-1.4-3.3 0-1.3.5-2.5 1.5-3.3 1.2-.8 2.5-1.2 3.9-1.1 1.6 0 3.3.3 4.9 1-1.6-.9-3.5-1.4-5.3-1.4-1.7-.1-3.3.4-4.6 1.5-1.1.8-1.7 2.1-1.6 3.4 0 2.8 2 4.7 6.3 5.9 1.6.3 3.1.9 4.5 1.8l.1.1c1 .8 1.6 2.1 1.5 3.5 0 1.8-.8 5-6.4 5-2 0-3.9-.4-5.7-1.2 1.8 1.1 4 1.7 6.2 1.6zM163.6 34.2h-3.3V20.9c0-4.7-2.1-7.1-6.3-7.1-1.2 0-2.4.3-3.5.9-1.1.5-2 1.2-2.6 2.1v17.4h-3.4V3.7l3.4-1.8v12c1.9-1.9 4.5-3 7.2-3 5.7 0 8.6 3.2 8.6 9.8v13.5z"/><path class="st0" d="M164.8 35.3h-5.6V20.8c0-2.2-.5-3.8-1.4-4.7-.8-.8-2-1.2-3.7-1.2-1 0-2.1.3-3 .7-.8.4-1.5.9-2 1.5v18.2h-5.6V3l5.6-3v11.5c1.8-1.1 3.9-1.8 6-1.8h.1c4.4 0 9.7 1.9 9.7 10.9v14.7zm-3.4-2.3h1V20.6c0-5.9-2.4-8.6-7.4-8.6-1.8 0-3.5.5-5 1.5 1.2-.6 2.6-.9 3.9-1 2.3 0 4.1.6 5.4 1.9 1.4 1.4 2.1 3.5 2.1 6.4V33zm-15.8 0h1.1V3.8l-1.1.5V33zM169.9 4.1c0-.6.2-1.1.6-1.5.8-.9 2.2-.9 3.1 0 .4.4.6.9.6 1.5s-.2 1.2-.6 1.6c-.4.4-1 .6-1.6.6-1.2 0-2.2-.9-2.2-2.1l.1-.1zm3.8 7.4v22.7h-3.3V11.5h3.3z"/><path class="st0" d="M174.9 35.3h-5.6v-25h5.6v25zm-3.4-2.3h1V12.6h-1V33zm.5-25.6c-.8 0-1.6-.3-2.2-.9-.6-.6-1-1.4-1-2.3V4c0-.9.4-1.7 1-2.3 1.2-1.3 3.4-1.3 4.7 0 .7.6 1 1.5 1 2.4 0 .9-.3 1.8-1 2.4-.6.6-1.4.9-2.3.9h-.2zm.1-4.4c-.3 0-.5.1-.7.3-.2.2-.3.4-.3.7v.1c0 .3.1.5.3.7.2.2.4.3.7.3.3 0 .6-.1.7-.3.2-.2.3-.5.3-.7 0-.3-.1-.5-.3-.7l-.1-.1c-.1-.2-.3-.3-.6-.3zM202.1 22.9c.1 3.3-1.1 6.5-3.4 8.9-4.3 4.1-11.1 4.1-15.2-.2l-.6-.6c-1.8-2.3-2.7-5.1-2.6-8-.1-3.3 1-6.5 3.3-8.9 4.3-4.2 11.2-4.1 15.4.2.2.2.4.4.6.7 1.7 2.1 2.6 5 2.5 7.9zm-18.2 0c-.1 2.5.7 5 2.2 6.9 2.5 2.8 6.9 3 9.7.5.3-.2.5-.5.7-.8 1.4-1.9 2.1-4.2 2-6.6.1-2.5-.7-4.9-2.2-6.9-1.2-1.6-3.1-2.4-5.1-2.4-2.1-.1-4.1.9-5.3 2.6-1.5 1.9-2.2 4.2-2 6.7z"/><path class="st0" d="M191.2 35.9h-.2c-3.2 0-6.2-1.3-8.4-3.6-.2-.2-.4-.5-.6-.7-2-2.5-3-5.6-2.9-8.8-.2-3.5 1.2-7 3.6-9.7 2.3-2.3 5.4-3.5 8.6-3.5 3.2 0 6.2 1.3 8.5 3.6l.7.7c1.9 2.5 2.9 5.6 2.8 8.8.1 3.6-1.2 7.1-3.7 9.7-2.3 2.3-5.3 3.5-8.4 3.5zm0-23.9c-2.6 0-5 1-6.8 2.8-2 2.1-3.1 5.1-3 8-.1 2.7.8 5.3 2.4 7.3.1.2.3.4.5.5 3.7 3.8 9.8 3.9 13.6.2 2-2.1 3.2-5 3.1-8 .1-2.6-.7-5.2-2.3-7.3-.1-.2-.3-.4-.5-.6-1.8-1.9-4.3-2.9-6.9-2.9h-.1zm0 21.1c-2.2 0-4.4-.9-5.9-2.6-1.8-2.2-2.7-4.9-2.5-7.7-.1-2.6.7-5.3 2.2-7.4 1.5-2 3.8-3.1 6.3-3 2.3-.1 4.5 1 6 2.8 1.7 2.2 2.6 4.9 2.5 7.6.1 2.6-.7 5.2-2.2 7.3-.3.4-.6.7-.9.9-1.7 1.5-3.6 2.1-5.5 2.1zm-.1-18.4c-1.7 0-3.3.8-4.3 2.1-1.3 1.7-1.9 3.8-1.8 6v.2c-.1 2.2.6 4.4 2 6.1 2.1 2.3 5.7 2.5 8 .4l.6-.6c1.2-1.6 1.8-3.7 1.7-5.8v-.2c.1-2.2-.6-4.4-2-6.1-1-1.3-2.6-2-4.2-2 .1-.1 0-.1 0-.1z"/><g><path class="st0" d="M227.5 34.2h-3.3V20.9c0-4.7-2.1-7.1-6.2-7.1-1.2 0-2.4.3-3.6.9-1.1.5-2 1.2-2.7 2.1v17.4h-3.4V11.5h2.8l.3 2.4h.1c1.9-2 4.6-3.1 7.4-3 5.6 0 8.4 3.3 8.4 9.8l.2 13.5z"/><path class="st0" d="M228.7 35.3H223V20.8c0-2.2-.5-3.8-1.4-4.8-.8-.8-2-1.2-3.6-1.2-1 0-2.1.3-3 .7-.8.4-1.5.9-2.1 1.5v18.1h-5.7v-25h5l.2 1.4c1.9-1.4 4.3-2.1 6.7-2 4.3 0 9.6 1.9 9.6 10.9v14.9zm-3.3-2.3h1V20.6c0-5.9-2.3-8.6-7.3-8.6-2.1-.1-4.1.6-5.7 1.9l.6-.3c1.2-.6 2.6-.9 4-1 2.2 0 4 .6 5.2 1.9 1.4 1.4 2.1 3.5 2.1 6.4V33zm-15.8 0h1V16.4l.2-.3c.3-.4.6-.7 1-1.1h-1.3l-.3-2.4h-.6V33z"/></g><path class="st1" d="M263.1 31.7c-2.3 2.1-5.4 3.2-8.6 3.1-4 .1-7.9-1.7-10.3-5-2.3-3.2-3.5-7.1-3.4-11.1-.2-4.4 1.2-8.7 3.9-12.2 2.2-2.9 5.7-4.6 9.3-4.5 3.1-.1 6.2.9 8.6 2.8l-1.2 1.5c-2.1-1.3-4.5-2-6.9-1.9-3.2-.1-6.2 1.5-7.9 4.1-1.8 2.5-2.7 5.9-2.8 10.2 0 4.6 1.2 8.1 3.6 10.6 2 2 4.7 3.1 7.4 3 2.5.1 5-.8 7-2.3l1.3 1.7zM270.9 2v32.2h-2.4V3.3l2.4-1.3zM286 10.9c3.2-.1 6.3 1.4 8.2 3.9 1.7 2.3 2.6 5.1 2.5 8 .1 3.3-1.1 6.4-3.3 8.8-4.1 4.1-10.9 4.1-15 0-.3-.3-.5-.5-.7-.8a12.7 12.7 0 0 1-2.5-8c-.1-3.3 1.1-6.5 3.3-8.9 2-2 4.7-3.1 7.5-3zm0 2.1c-2.5-.1-4.9 1.2-6.2 3.2-1.3 2-2 4.3-1.9 6.6-.1 2.6.8 5.2 2.5 7.2 2.8 3.1 7.5 3.4 10.6.7.5-.4.9-.9 1.2-1.4 1.3-1.9 2-4.2 2-6.6.1-2.7-.7-5.3-2.5-7.4-1.4-1.4-3.5-2.4-5.7-2.3zM316.6 31.7c-2.1 2-4.9 3.1-7.8 3.1-2.3 0-4.4-1.1-5.8-2.9-1.4-2-2.1-4.3-2-6.8V11.5h2.4v13.4c0 5.2 2 7.8 6 7.8 2.8.1 5.4-1.3 7-3.5V11.5h2.4v22.7h-2l-.2-2.5zM340.9 34.2l-.5-2.4c-1.8 2.1-4.4 3.2-7.1 3-3 .1-5.9-1.3-7.8-3.7a12.7 12.7 0 0 1-2.5-8c0-3.9 1.1-6.9 3.4-9.2 1.9-1.9 4.5-3 7.2-2.9 2.5-.1 5 1 6.6 2.9V3.3l2.3-1.2v32.2h-1.6zm-.6-5V16.6c-.6-1.1-1.5-2-2.6-2.6-1.2-.7-2.5-1-3.8-1-2.3 0-4.5 1-6 2.9-1.5 2-2.3 4.4-2.2 6.9-.2 2.8.8 5.5 2.6 7.6 1.4 1.5 3.4 2.3 5.5 2.2 3.1.1 5.2-1.1 6.5-3.4z"/></g></g></svg>
